{
    "asset" : {
        "generator" : "Khronos glTF Blender I/O v1.0.5",
        "version" : "2.0"
    },
    "scene" : 0,
    "scenes" : [
        {
            "name" : "Scene",
            "nodes" : [
                0,
                1
            ]
        }
    ],
    "nodes" : [
        {
            "mesh" : 0,
            "name" : "Botin de Oro Messi",
            "translation" : [
                0,
                2.3260674476623535,
                0
            ]
        },
        {
            "mesh" : 1,
            "name" : "Base",
            "translation" : [
                0,
                0,
                0.005301495548337698
            ]
        }
    ],
    "materials" : [
        {
            "doubleSided" : true,
            "name" : "Botin",
            "normalTexture" : {
                "index" : 0,
                "texCoord" : 0
            },
            "pbrMetallicRoughness" : {
                "baseColorTexture" : {
                    "index" : 1,
                    "texCoord" : 0
                },
                "metallicFactor" : 0.699999988079071,
                "roughnessFactor" : 0.5
            }
        },
        {
            "doubleSided" : true,
            "name" : "Base",
            "pbrMetallicRoughness" : {
                "baseColorTexture" : {
                    "index" : 2,
                    "texCoord" : 0
                },
                "metallicFactor" : 0,
                "roughnessFactor" : 0.800000011920929
            }
        }
    ],
    "meshes" : [
        {
            "name" : "Botin de Oro Messi",
            "primitives" : [
                {
                    "attributes" : {
                        "POSITION" : 0,
                        "NORMAL" : 1,
                        "TEXCOORD_0" : 2,
                        "TEXCOORD_1" : 3
                    },
                    "indices" : 4,
                    "material" : 0
                }
            ]
        },
        {
            "name" : "Base",
            "primitives" : [
                {
                    "attributes" : {
                        "POSITION" : 5,
                        "NORMAL" : 6,
                        "TEXCOORD_0" : 7
                    },
                    "indices" : 8,
                    "material" : 1
                }
            ]
        }
    ],
    "textures" : [
        {
            "source" : 0
        },
        {
            "source" : 1
        },
        {
            "source" : 2
        }
    ],
    "images" : [
        {
            "mimeType" : "image/png",
            "name" : "Botin de Oro_normal",
            "uri" : "Botin de Oro_normal.png"
        },
        {
            "mimeType" : "image/png",
            "name" : "Botin de Oro_diffuseOriginal",
            "uri" : "Botin de Oro_diffuseOriginal.png"
        },
        {
            "mimeType" : "image/png",
            "name" : "T_Marble",
            "uri" : "T_Marble.png"
        }
    ],
    "accessors" : [
        {
            "bufferView" : 0,
            "componentType" : 5126,
            "count" : 6030,
            "max" : [
                0.7204681038856506,
                1.1439909934997559,
                2.1513500213623047
            ],
            "min" : [
                -0.7396227121353149,
                -1.8347207307815552,
                -2.068258047103882
            ],
            "type" : "VEC3"
        },
        {
            "bufferView" : 1,
            "componentType" : 5126,
            "count" : 6030,
            "type" : "VEC3"
        },
        {
            "bufferView" : 2,
            "componentType" : 5126,
            "count" : 6030,
            "type" : "VEC2"
        },
        {
            "bufferView" : 3,
            "componentType" : 5126,
            "count" : 6030,
            "type" : "VEC2"
        },
        {
            "bufferView" : 4,
            "componentType" : 5123,
            "count" : 23412,
            "type" : "SCALAR"
        },
        {
            "bufferView" : 5,
            "componentType" : 5126,
            "count" : 80,
            "max" : [
                1.1826025247573853,
                0.6055168509483337,
                2.5003294944763184
            ],
            "min" : [
                -1.1826025247573853,
                0,
                -2.5003294944763184
            ],
            "type" : "VEC3"
        },
        {
            "bufferView" : 6,
            "componentType" : 5126,
            "count" : 80,
            "type" : "VEC3"
        },
        {
            "bufferView" : 7,
            "componentType" : 5126,
            "count" : 80,
            "type" : "VEC2"
        },
        {
            "bufferView" : 8,
            "componentType" : 5123,
            "count" : 198,
            "type" : "SCALAR"
        }
    ],
    "bufferViews" : [
        {
            "buffer" : 0,
            "byteLength" : 72360,
            "byteOffset" : 0
        },
        {
            "buffer" : 0,
            "byteLength" : 72360,
            "byteOffset" : 72360
        },
        {
            "buffer" : 0,
            "byteLength" : 48240,
            "byteOffset" : 144720
        },
        {
            "buffer" : 0,
            "byteLength" : 48240,
            "byteOffset" : 192960
        },
        {
            "buffer" : 0,
            "byteLength" : 46824,
            "byteOffset" : 241200
        },
        {
            "buffer" : 0,
            "byteLength" : 960,
            "byteOffset" : 288024
        },
        {
            "buffer" : 0,
            "byteLength" : 960,
            "byteOffset" : 288984
        },
        {
            "buffer" : 0,
            "byteLength" : 640,
            "byteOffset" : 289944
        },
        {
            "buffer" : 0,
            "byteLength" : 396,
            "byteOffset" : 290584
        }
    ],
    "buffers" : [
        {
            "byteLength" : 290980,
            "uri" : "Botin de Oro.bin"
        }
    ]
}
